<svg preserveAspectRatio="none" overflow="visible" style="display: block;" width="24" height="24" viewBox="0 0 24 24" fill="none" xmlns="http://www.w3.org/2000/svg">
<g id="vadivam:layout-grid">
<path id="Vector" d="M4 5.92C4 5.41078 4.20229 4.92242 4.56236 4.56236C4.92242 4.20229 5.41078 4 5.92 4H8.48C8.98922 4 9.47758 4.20229 9.83765 4.56236C10.1977 4.92242 10.4 5.41078 10.4 5.92V8.48C10.4 8.73214 10.3503 8.98181 10.2538 9.21475C10.1574 9.4477 10.0159 9.65936 9.83765 9.83765C9.65936 10.0159 9.4477 10.1574 9.21475 10.2538C8.98181 10.3503 8.73214 10.4 8.48 10.4H5.92C5.41078 10.4 4.92242 10.1977 4.56236 9.83765C4.20229 9.47758 4 8.98922 4 8.48V5.92ZM4 15.52C4 15.0108 4.20229 14.5224 4.56236 14.1624C4.92242 13.8023 5.41078 13.6 5.92 13.6H8.48C8.98922 13.6 9.47758 13.8023 9.83765 14.1624C10.1977 14.5224 10.4 15.0108 10.4 15.52V18.08C10.4 18.3321 10.3503 18.5818 10.2538 18.8148C10.1574 19.0477 10.0159 19.2594 9.83765 19.4376C9.65936 19.6159 9.4477 19.7574 9.21475 19.8538C8.98181 19.9503 8.73214 20 8.48 20H5.92C5.41078 20 4.92242 19.7977 4.56236 19.4376C4.20229 19.0776 4 18.5892 4 18.08V15.52ZM13.6 5.92C13.6 5.41078 13.8023 4.92242 14.1624 4.56236C14.5224 4.20229 15.0108 4 15.52 4H18.08C18.3321 4 18.5818 4.04966 18.8148 4.14615C19.0477 4.24264 19.2594 4.38407 19.4376 4.56236C19.6159 4.74064 19.7574 4.9523 19.8538 5.18525C19.9503 5.41819 20 5.66786 20 5.92V8.48C20 8.98922 19.7977 9.47758 19.4376 9.83765C19.0776 10.1977 18.5892 10.4 18.08 10.4H15.52C15.2679 10.4 15.0182 10.3503 14.7852 10.2538C14.5523 10.1574 14.3406 10.0159 14.1624 9.83765C13.9841 9.65936 13.8426 9.4477 13.7462 9.21475C13.6497 8.98181 13.6 8.73214 13.6 8.48V5.92ZM13.6 15.52C13.6 15.0108 13.8023 14.5224 14.1624 14.1624C14.5224 13.8023 15.0108 13.6 15.52 13.6H18.08C18.5892 13.6 19.0776 13.8023 19.4376 14.1624C19.7977 14.5224 20 15.0108 20 15.52V18.08C20 18.5892 19.7977 19.0776 19.4376 19.4376C19.0776 19.7977 18.5892 20 18.08 20H15.52C15.0108 20 14.5224 19.7977 14.1624 19.4376C13.8023 19.0776 13.6 18.5892 13.6 18.08V15.52Z" stroke-width="1.5" stroke-linecap="round" stroke-linejoin="round" stroke="#1A1A1A"/>
</g>
</svg>
